<mxfile host="app.diagrams.net" modified="2023-08-22T23:31:04.614Z" agent="Mozilla/5.0 (Windows NT 10.0; Win64; x64) AppleWebKit/537.36 (KHTML, like Gecko) Chrome/115.0.0.0 Safari/537.36 Edg/115.0.1901.203" version="21.6.9" etag="ggbkF7-LPD-9ZIZekD0t" type="github">
  <diagram name="PÃ¡gina-1" id="deG1nAKdaDbaWNIzBLO2">
    <mxGraphModel>
      <root>
        <mxCell id="0" />
        <mxCell id="1" parent="0" />
      </root>
    </mxGraphModel>
  </diagram>
</mxfile>
